<svg xmlns="http://www.w3.org/2000/svg" width="463.38" height="142.774" viewBox="0 0 463.38 142.774">
  <g id="Group_1" data-name="Group 1" transform="translate(-175.854 -200.08)">
    <g id="Bike-watch-delivery-shipping-transport-transportation-clock-time" transform="translate(175.854 202.754)">
      <path id="Path_1" data-name="Path 1" d="M12,45H32.628v9.168H12Z" transform="translate(10.92 53.556)" fill="#c7bec5"/>
      <ellipse id="Ellipse_1" data-name="Ellipse 1" cx="11.5" cy="11" rx="11.5" ry="11" transform="translate(39.146 112.246)" fill="#636263"/>
      <circle id="Ellipse_2" data-name="Ellipse 2" cx="4.5" cy="4.5" r="4.5" transform="translate(46.145 119.246)" fill="#c7bec5"/>
      <ellipse id="Ellipse_3" data-name="Ellipse 3" cx="11.5" cy="11" rx="11.5" ry="11" transform="translate(105.146 112.246)" fill="#636263"/>
      <circle id="Ellipse_4" data-name="Ellipse 4" cx="4.5" cy="4.5" r="4.5" transform="translate(112.146 119.246)" fill="#c7bec5"/>
      <path id="Path_2" data-name="Path 2" d="M3,27H44.256V40.752H3Z" transform="translate(-0.708 30.3)" fill="#ffda44"/>
      <path id="Path_3" data-name="Path 3" d="M62.876,24V37.752L56,35.46V26.292Z" transform="translate(67.768 26.424)" fill="#ffda44"/>
      <path id="Path_4" data-name="Path 4" d="M62.256,45.73a5.712,5.712,0,0,1-5.73,5.73H21V40H56.526A5.73,5.73,0,0,1,62.256,45.73Z" transform="translate(22.548 47.096)" fill="#636263"/>
      <path id="Path_5" data-name="Path 5" d="M10,27h9.168v4.584a2.292,2.292,0,0,1-2.292,2.292H12.292A2.292,2.292,0,0,1,10,31.584Z" transform="translate(8.336 30.3)" fill="#ec455a"/>
      <path id="Path_6" data-name="Path 6" d="M3,33H44.256V46.752H3Z" transform="translate(-0.708 38.052)" fill="#ffda44"/>
      <path id="Path_7" data-name="Path 7" d="M10,33h9.168v4.584a2.292,2.292,0,0,1-2.292,2.292H12.292A2.292,2.292,0,0,1,10,37.584Z" transform="translate(8.336 38.052)" fill="#ec455a"/>
      <path id="Path_8" data-name="Path 8" d="M3,39H44.256V52.752H3Z" transform="translate(-0.708 45.804)" fill="#ffda44"/>
      <path id="Path_9" data-name="Path 9" d="M10,39h9.168v4.584a2.292,2.292,0,0,1-2.292,2.292H12.292A2.292,2.292,0,0,1,10,43.584Z" transform="translate(8.336 45.804)" fill="#ec455a"/>
      <circle id="Ellipse_5" data-name="Ellipse 5" cx="27.5" cy="27.5" r="27.5" transform="translate(41.146 2.246)" fill="#5bcbfa"/>
      <path id="Path_10" data-name="Path 10" d="M68.92,23V41.336H46V27.584A4.6,4.6,0,0,1,50.584,23Z" transform="translate(54.848 25.132)" fill="#e78740"/>
      <path id="Path_11" data-name="Path 11" d="M59.336,30.584a4.618,4.618,0,0,1-4.584,4.584H41V26H54.752a4.6,4.6,0,0,1,4.584,4.584Z" transform="translate(48.388 29.008)" fill="#c7bec5"/>
      <path id="Path_12" data-name="Path 12" d="M108.8,79.132v6.876H24V63.088H51.5V76.84H67.548a9.168,9.168,0,0,0,9.168-9.168V31h9.168l4.584,34.38h4.584A13.752,13.752,0,0,1,108.8,79.132Z" transform="translate(26.424 35.468)" fill="#f7d880"/>
      <path id="Path_13" data-name="Path 13" d="M52.672,58.752V67.92H16V58.752a13.294,13.294,0,0,1,.8-4.584A13.708,13.708,0,0,1,29.752,45H38.92A13.752,13.752,0,0,1,52.672,58.752Z" transform="translate(16.088 53.556)" fill="#e78740"/>
      <path id="Path_14" data-name="Path 14" d="M123.476,74.716h-2.567l-3.988-29.8h8.847a2.292,2.292,0,0,0,2.292-2.292v-1.4l3.851,1.284a2.716,2.716,0,0,0,.733.115,2.152,2.152,0,0,0,1.329-.435,2.253,2.253,0,0,0,.963-1.857V26.584a2.253,2.253,0,0,0-.963-1.857,2.292,2.292,0,0,0-2.063-.321L128.06,25.69v-1.4A2.292,2.292,0,0,0,125.768,22H107.432a6.9,6.9,0,0,0-6.876,6.876H91.388A2.292,2.292,0,0,0,89.1,31.168v9.168a2.292,2.292,0,0,0,2.292,2.292h9.168a2.292,2.292,0,0,0,2.292,2.292V79.3a6.9,6.9,0,0,1-6.876,6.876H82.22V76.894a8,8,0,0,0-1.146-15.929H47.84V33.46a2.292,2.292,0,0,0-2.292-2.292H4.292A2.292,2.292,0,0,0,2,33.46V74.716a2.292,2.292,0,0,0,2.292,2.292H22.628v6.876a2.292,2.292,0,0,0,2.292,2.292h7.059a15.205,15.205,0,0,0-.183,2.292v9.168a2.292,2.292,0,0,0,2.292,2.292h4.584a13.752,13.752,0,1,0,27.5,0H105.14a13.752,13.752,0,1,0,27.5,0h4.584a2.292,2.292,0,0,0,2.292-2.292V90.76a16.062,16.062,0,0,0-16.044-16.044Zm4.584-44.19,2.292-.756v7.38l-2.292-.756Zm-20.628-3.942h16.044V40.336H110.228a6.816,6.816,0,0,0,1.788-4.584,6.9,6.9,0,0,0-6.876-6.876A2.292,2.292,0,0,1,107.432,26.584ZM93.68,38.044V33.46h11.46a2.292,2.292,0,0,1,0,4.584Zm-45.84,27.5H81.074a3.438,3.438,0,0,1,0,6.876H47.84Zm-25.212-29.8h4.584v2.292H22.628Zm-16.044,0h11.46v2.292a4.6,4.6,0,0,0,4.584,4.584h4.584A4.6,4.6,0,0,0,31.8,38.044V35.752h11.46V44.92H6.584ZM27.212,49.5V51.8H22.628V49.5Zm-20.628,0h11.46V51.8a4.6,4.6,0,0,0,4.584,4.584h4.584A4.6,4.6,0,0,0,31.8,51.8V49.5h11.46v9.168H6.584ZM27.212,63.256v2.292H22.628V63.256ZM6.584,72.424V63.256h11.46v2.292a4.6,4.6,0,0,0,4.584,4.584h4.584A4.6,4.6,0,0,0,31.8,65.548V63.256h11.46v9.168Zm26.771,9.168H27.212V77.008h9.42A15.952,15.952,0,0,0,33.355,81.592Zm19.069,27.5a9.168,9.168,0,0,1-9.168-9.168h2.292a6.876,6.876,0,1,0,13.752,0h2.292A9.168,9.168,0,0,1,52.424,109.1Zm-2.292-9.168h4.584a2.292,2.292,0,1,1-4.584,0Zm18.336-4.584H36.38V88.468a11.46,11.46,0,0,1,11.46-11.46h9.168a11.46,11.46,0,0,1,11.46,11.46ZM118.892,109.1a9.168,9.168,0,0,1-9.168-9.168h2.292a6.876,6.876,0,1,0,13.752,0h2.292A9.168,9.168,0,0,1,118.892,109.1ZM116.6,99.928h4.584a2.292,2.292,0,1,1-4.584,0Zm18.336-4.584H73.052V88.468a15.975,15.975,0,0,0-4.836-11.46h9.42v11.46a2.292,2.292,0,0,0,2.292,2.292H95.972a11.46,11.46,0,0,0,11.46-11.46V44.92h4.859l4.332,32.386a2.292,2.292,0,0,0,2.269,1.994h4.584a11.46,11.46,0,0,1,11.46,11.46Z" transform="translate(-2 23.84)"/>
      <path id="Path_15" data-name="Path 15" d="M21,48H34.752v4.584H21Z" transform="translate(22.548 57.432)"/>
      <path id="Path_16" data-name="Path 16" d="M21,51H34.752v4.584H21Z" transform="translate(22.548 61.308)"/>
      <path id="Path_17" data-name="Path 17" d="M48.8,61.592A29.8,29.8,0,1,0,19,31.8a29.8,29.8,0,0,0,29.8,29.8ZM23.7,29.5a25.088,25.088,0,0,1,5.73-13.83l3.156,3.156,3.241-3.241-3.154-3.156A25.088,25.088,0,0,1,46.5,6.7v4.467h4.584V6.7a25.088,25.088,0,0,1,13.83,5.73l-3.156,3.158L65,18.83l3.156-3.156A25.088,25.088,0,0,1,73.891,29.5H69.424v4.584h4.467a25.088,25.088,0,0,1-5.73,13.83l-3.156-3.156L61.764,48l3.156,3.156a25.088,25.088,0,0,1-13.832,5.732V52.424H46.5v4.467a25.088,25.088,0,0,1-13.83-5.73l3.156-3.156-3.241-3.241L29.433,47.92A25.088,25.088,0,0,1,23.7,34.088h4.467V29.5Z" transform="translate(19.964 -2)"/>
      <path id="Path_18" data-name="Path 18" d="M39.373,24.665a2.292,2.292,0,0,0,1.62-.671l9.168-9.168-3.241-3.241-7.548,7.548-9.84-9.84-3.241,3.241,11.46,11.46a2.292,2.292,0,0,0,1.62.672Z" transform="translate(29.387 7.423)"/>
      <path id="Path_19" data-name="Path 19" d="M4,9H31.5v4.584H4Z" transform="translate(0.584 7.044)"/>
      <path id="Path_20" data-name="Path 20" d="M6,14H28.92v4.584H6Z" transform="translate(3.168 13.504)"/>
      <path id="Path_21" data-name="Path 21" d="M9,19H25.044v4.584H9Z" transform="translate(7.044 19.964)"/>
    </g>
    <path id="Path_22" data-name="Path 22" d="M7.98-6.745A7.258,7.258,0,0,0,15.3.57,7.258,7.258,0,0,0,22.61-6.745v-13.3l8.36-7.79,19,24.89C51.585-.855,53.295.57,56.145.57a7.069,7.069,0,0,0,7.41-7.125,7.788,7.788,0,0,0-2-5.13L41.135-37.335,59.85-54.815a7.326,7.326,0,0,0,2.66-5.51,6.592,6.592,0,0,0-6.745-6.745,8.243,8.243,0,0,0-6.175,2.85L22.61-37.43V-59.755A7.258,7.258,0,0,0,15.3-67.07,7.258,7.258,0,0,0,7.98-59.755ZM83.41-29.45c1.14-6.555,5.035-10.83,11.02-10.83,6.08,0,9.88,4.37,10.735,10.83ZM113.525-5.035a5.667,5.667,0,0,0,1.9-4.275,5.52,5.52,0,0,0-5.605-5.7,5.388,5.388,0,0,0-3.515,1.14,16.666,16.666,0,0,1-10.26,3.42c-6.46,0-11.02-3.42-12.445-9.975h28.6a6.587,6.587,0,0,0,6.745-6.935c0-10.545-7.505-24.51-24.51-24.51-14.82,0-25.175,11.97-25.175,26.5v.19C69.255-9.6,80.56,1.14,95.855,1.14A26.383,26.383,0,0,0,113.525-5.035Zm16.91-1.615a7.217,7.217,0,0,0,7.22,7.22,7.2,7.2,0,0,0,7.22-7.125v-.1c3.42,4.085,8.17,7.6,15.865,7.6,12.065,0,23.18-9.31,23.18-26.315v-.19c0-17.005-11.3-26.315-23.18-26.315-7.5,0-12.35,3.515-15.865,8.265V-62.7a7.217,7.217,0,0,0-7.22-7.22,7.217,7.217,0,0,0-7.22,7.22Zm26.6-4.655c-6.745,0-12.35-5.6-12.35-14.06v-.19c0-8.455,5.6-14.06,12.35-14.06s12.445,5.6,12.445,14.06v.19C169.48-16.815,163.78-11.305,157.035-11.305ZM209.475.95c7.03,0,11.875-2.565,15.39-6.46v.095c0,3.04,2.755,5.985,6.935,5.985a6.934,6.934,0,0,0,7.03-6.935v-23.18c0-6.84-1.71-12.445-5.51-16.245-3.61-3.61-9.31-5.7-17.195-5.7a44.327,44.327,0,0,0-16.245,2.66,5.986,5.986,0,0,0-3.9,5.6,5.88,5.88,0,0,0,5.985,5.89,6.108,6.108,0,0,0,2.09-.38,33.117,33.117,0,0,1,9.975-1.425c7.22,0,10.925,3.325,10.925,9.31v.855a36.183,36.183,0,0,0-12.445-2.09c-12.065,0-20.52,5.13-20.52,16.245v.19C191.995-4.56,199.88.95,209.475.95Zm4.37-9.975c-4.655,0-7.885-2.28-7.885-6.175v-.19c0-4.56,3.8-7.03,9.975-7.03a22.39,22.39,0,0,1,9.215,1.9v2.565C225.15-12.73,220.59-9.025,213.845-9.025Zm37.9,2.375A7.217,7.217,0,0,0,258.97.57a7.2,7.2,0,0,0,7.22-7.125v-.1c3.42,4.085,8.17,7.6,15.865,7.6,12.065,0,23.18-9.31,23.18-26.315v-.19c0-17.005-11.3-26.315-23.18-26.315-7.505,0-12.35,3.515-15.865,8.265V-62.7a7.217,7.217,0,0,0-7.22-7.22,7.217,7.217,0,0,0-7.22,7.22Zm26.6-4.655c-6.745,0-12.35-5.6-12.35-14.06v-.19c0-8.455,5.6-14.06,12.35-14.06s12.445,5.6,12.445,14.06v.19C290.795-16.815,285.1-11.305,278.35-11.305Z" transform="translate(334 270)" fill="#532d16"/>
    <path id="Path_23" data-name="Path 23" d="M22.1.126C32.1.126,39.129-5.044,39.129-14.255v-.133c0-8.085-5.3-11.465-14.712-13.917-8.019-2.054-10.007-3.048-10.007-6.1v-.133c0-2.253,2.054-4.042,5.964-4.042a19.3,19.3,0,0,1,9.742,3.115,4.9,4.9,0,0,0,2.585.729,4.7,4.7,0,0,0,4.771-4.705,4.65,4.65,0,0,0-2.253-4.042,26.93,26.93,0,0,0-14.712-4.109c-9.477,0-16.236,5.567-16.236,13.983v.133c0,9.212,6.031,11.8,15.375,14.182,7.754,1.988,9.344,3.314,9.344,5.9v.133c0,2.717-2.518,4.374-6.693,4.374a19.563,19.563,0,0,1-11.862-4.175,4.908,4.908,0,0,0-2.916-.928A4.7,4.7,0,0,0,2.747-9.285,4.766,4.766,0,0,0,4.669-5.441,29.943,29.943,0,0,0,22.1.126Zm33-21.206c.8-4.573,3.512-7.555,7.687-7.555,4.241,0,6.892,3.048,7.489,7.555ZM76.108-4.049a3.953,3.953,0,0,0,1.325-2.982,3.851,3.851,0,0,0-3.91-3.976,3.759,3.759,0,0,0-2.452.8,11.626,11.626,0,0,1-7.157,2.386c-4.506,0-7.687-2.386-8.681-6.958H75.18a4.6,4.6,0,0,0,4.705-4.838c0-7.356-5.235-17.1-17.1-17.1-10.338,0-17.562,8.35-17.562,18.489v.133C45.226-7.23,53.112.258,63.782.258A18.4,18.4,0,0,0,76.108-4.049ZM103.478,10.2c6.892,0,11.995-1.458,15.308-4.771,2.982-2.982,4.506-7.621,4.506-13.983V-31.419a5.034,5.034,0,0,0-5.037-5.037,5.021,5.021,0,0,0-5.037,4.97v.066c-2.717-2.982-5.964-5.3-11.465-5.3-8.151,0-15.772,5.964-15.772,16.568v.133c0,10.537,7.489,16.568,15.772,16.568,5.368,0,8.615-2.187,11.6-5.766V-7.5c0,6.362-3.247,9.675-10.139,9.675A22.955,22.955,0,0,1,93.4.059a4.116,4.116,0,1,0-2.916,7.687A34.056,34.056,0,0,0,103.478,10.2Zm1.193-22c-4.9,0-8.615-3.314-8.615-8.218v-.133c0-4.838,3.711-8.218,8.615-8.218s8.681,3.38,8.681,8.218v.133C113.352-15.183,109.575-11.8,104.671-11.8Zm59.908-19.616a5.034,5.034,0,0,0-5.037-5.037,5.034,5.034,0,0,0-5.037,5.037v15.176c0,4.771-2.452,7.223-6.3,7.223s-6.1-2.452-6.1-7.223V-31.419a5.034,5.034,0,0,0-5.037-5.037,5.034,5.034,0,0,0-5.037,5.037v18.357C132.04-4.911,136.48.126,144.1.126c5.1,0,8.085-2.717,10.4-5.7v.4A5.034,5.034,0,0,0,159.542-.14a5.034,5.034,0,0,0,5.037-5.037Zm9.013,26.243A5.034,5.034,0,0,0,178.628-.14a5.034,5.034,0,0,0,5.037-5.037V-20.352c0-4.771,2.452-7.223,6.3-7.223s6.1,2.452,6.1,7.223V-5.176A5.034,5.034,0,0,0,201.094-.14a5.034,5.034,0,0,0,5.037-5.037V-23.533c0-8.151-4.44-13.188-12.061-13.188-5.1,0-8.085,2.717-10.4,5.7v-.4a5.034,5.034,0,0,0-5.037-5.037,5.034,5.034,0,0,0-5.037,5.037Zm77.006-39.1a5.034,5.034,0,0,0-5.037-5.037,5.034,5.034,0,0,0-5.037,5.037v12.856a13.641,13.641,0,0,0-11.067-5.3c-8.416,0-16.17,6.494-16.17,18.357v.133c0,11.862,7.886,18.357,16.17,18.357A13.045,13.045,0,0,0,240.524-5.64v.464A5.034,5.034,0,0,0,245.561-.14,5.034,5.034,0,0,0,250.6-5.176Zm-18.556,16.1c4.705,0,8.615,3.91,8.615,9.808v.133c0,5.9-3.91,9.808-8.615,9.808s-8.681-3.91-8.681-9.808v-.133C223.361-24.328,227.337-28.172,232.042-28.172Zm45,28.43c11.067,0,19.285-8.284,19.285-18.489v-.133c0-10.206-8.151-18.357-19.152-18.357-11.067,0-19.285,8.284-19.285,18.489v.133C257.887-7.893,266.038.258,277.039.258Zm.133-8.681c-5.567,0-9.344-4.573-9.344-9.808v-.133c0-5.235,3.446-9.675,9.212-9.675,5.567,0,9.344,4.573,9.344,9.808v.133C286.383-12.863,282.937-8.423,277.172-8.423Z" transform="translate(339.233 332.655)" fill="#d43f0c"/>
  </g>
</svg>
